<?xml version="1.0" encoding="UTF-8"?>
<svg id="Layer_2" xmlns="http://www.w3.org/2000/svg" viewBox="0 0 17.25 17.25">
  <g id="Layer_1-2" data-name="Layer_1">
    <path d="M.62,8.39C.62,3.93,4.12.62,8.62.62s8,3.3,8,7.76-3.49,7.76-8,7.76c-.81,0-1.59-.11-2.32-.31-.14-.04-.29-.03-.43.03l-1.59.7c-.42.18-.88-.11-.9-.57l-.04-1.42c0-.18-.08-.34-.22-.46-1.56-1.39-2.51-3.41-2.51-5.74ZM6.17,6.93l-2.35,3.73c-.23.36.21.76.55.51l2.52-1.92c.17-.13.41-.13.58,0l1.87,1.4c.56.42,1.36.27,1.74-.32l2.35-3.73c.23-.36-.21-.76-.55-.51l-2.52,1.92c-.17.13-.41.13-.58,0l-1.87-1.4c-.56-.42-1.36-.27-1.74.32Z" style="fill: none; stroke: #000; stroke-miterlimit: 10; stroke-width: 1.25px;"/>
  </g>
</svg>