<?xml version="1.0" encoding="UTF-8"?>
<svg id="Layer_2" xmlns="http://www.w3.org/2000/svg" viewBox="0 0 17.9 17.8">
  <g id="Layer_1-2" data-name="Layer_1">
    <g>
      <path d="M5.92,14.45v-7.22h-2.4v7.22h2.4ZM4.72,6.24c.84,0,1.36-.55,1.36-1.25-.02-.71-.52-1.25-1.34-1.25s-1.36.54-1.36,1.25.52,1.25,1.33,1.25h.02ZM9.63,14.45v-4.03c.03-.62.63-1.24,1.3-1.24.87,0,1.23.44,1.23,1.41v3.87h2.4v-4.14c0-2.22-1.18-3.25-2.76-3.25-1.27,0-2.33,1.17-2.33,1.17v-1s-2.24,0-2.24,0c.03.68,0,7.22,0,7.22h2.4Z" style="fill: none; stroke: #000; stroke-miterlimit: 10; stroke-width: .75px;"/>
      <path d="M17.28,2.39v13.06c0,.95-.77,1.72-1.7,1.72H2.32c-.93,0-1.69-.78-1.69-1.73V2.35c0-.95.76-1.73,1.7-1.72l13.27.04c.93,0,1.69.77,1.69,1.72Z" style="fill: none; stroke: #000; stroke-miterlimit: 10; stroke-width: 1.25px;"/>
    </g>
  </g>
</svg>