<?xml version="1.0" encoding="UTF-8"?>
<svg id="Layer_2" xmlns="http://www.w3.org/2000/svg" viewBox="0 0 16.47 16.55">
  <g id="Layer_1-2" data-name="Layer_1">
    <path d="M14.06,2.41c-1.54-1.55-3.6-2.41-5.8-2.41C3.75,0,.07,3.68.07,8.2c0,1.45.38,2.85,1.09,4.1l-1.16,4.25,4.35-1.14c1.2.65,2.55,1,3.92,1h0c4.52,0,8.2-3.68,8.2-8.2,0-2.19-.86-4.25-2.41-5.8ZM8.27,15.02c-1.23,0-2.43-.33-3.47-.95l-.25-.15-2.58.68.69-2.52-.16-.26c-.68-1.08-1.04-2.34-1.04-3.62,0-3.75,3.06-6.81,6.82-6.81,1.82,0,3.53.71,4.82,2,1.29,1.29,1.99,3,1.99,4.82,0,3.76-3.06,6.82-6.82,6.82ZM12,9.91c-.2-.1-1.21-.6-1.4-.67-.19-.07-.33-.1-.46.1-.14.2-.53.67-.65.8-.12.14-.24.15-.44.05-.2-.1-.87-.32-1.65-1.02-.61-.54-1.02-1.21-1.14-1.42-.12-.2-.01-.31.09-.42.09-.09.2-.24.31-.36.1-.12.14-.2.2-.34s.04-.26-.02-.36c-.05-.1-.46-1.11-.63-1.52-.17-.4-.33-.35-.46-.35-.12,0-.26,0-.39,0s-.36.05-.55.26c-.19.2-.72.7-.72,1.71s.74,1.98.84,2.12c.1.14,1.44,2.21,3.5,3.09.49.21.87.34,1.17.43.49.16.93.13,1.29.08.39-.06,1.21-.5,1.38-.97.17-.48.17-.89.12-.97-.05-.09-.19-.14-.39-.24Z"/>
  </g>
</svg>